<svg xmlns="http://www.w3.org/2000/svg" xmlns:xlink="http://www.w3.org/1999/xlink" width="500" zoomAndPan="magnify" viewBox="0 0 375 374.999991" height="500" preserveAspectRatio="xMidYMid meet" version="1.0"><defs><g/></defs><rect x="-37.5" width="450" fill="#ffffff" y="-37.499999" height="449.999989" fill-opacity="1"/><rect x="-37.5" width="450" fill="#2c0001" y="-37.499999" height="449.999989" fill-opacity="1"/><g fill="#f8f7f0" fill-opacity="1"><g transform="translate(75.822784, 225.45742)"><g><path d="M 9.671875 -0.234375 L 9.671875 -121.578125 L 38.21875 -121.34375 L 38.21875 -0.234375 Z M 60.328125 -121.34375 L 88.640625 -121.34375 L 88.640625 -93.25 C 88.640625 -93.25 87.945312 -94.9375 86.5625 -98.3125 C 85.1875 -101.6875 82.273438 -105.753906 77.828125 -110.515625 C 73.523438 -115.117188 69.53125 -118.070312 65.84375 -119.375 C 62.164062 -120.6875 60.328125 -121.34375 60.328125 -121.34375 Z M 46.515625 -58.484375 C 47.273438 -58.484375 48.921875 -59.132812 51.453125 -60.4375 C 53.992188 -61.738281 56.722656 -63.925781 59.640625 -67 C 63.171875 -70.53125 65.429688 -73.640625 66.421875 -76.328125 C 67.421875 -79.015625 67.921875 -80.359375 67.921875 -80.359375 L 67.921875 -36.609375 C 67.921875 -36.609375 67.421875 -37.953125 66.421875 -40.640625 C 65.429688 -43.328125 63.171875 -46.4375 59.640625 -49.96875 C 56.722656 -53.03125 53.992188 -55.210938 51.453125 -56.515625 C 48.921875 -57.828125 47.273438 -58.484375 46.515625 -58.484375 Z M 46.515625 -58.484375 "/></g></g></g><g fill="#f8f7f0" fill-opacity="1"><g transform="translate(131.772591, 225.45742)"><g><path d="M 61.9375 2.765625 L 9.671875 -121.34375 L 43.75 -121.34375 L 76.90625 -38.90625 Z M 118.8125 2.765625 L 67.234375 -121.34375 L 100.625 -121.34375 L 134.46875 -38.90625 Z M 118.8125 2.765625 "/></g></g></g><g fill="#f8f7f0" fill-opacity="1"><g transform="translate(110.823527, 268.466673)"><g><path d="M 5.859375 -10.5625 L 5.859375 -9.46875 L 2.234375 -9.46875 L 2.234375 -6.328125 L 5.75 -6.328125 L 5.75 -5.234375 L 2.234375 -5.234375 L 2.234375 0 L 1.0625 0 L 1.0625 -10.5625 Z M 5.859375 -10.5625 "/></g></g></g><g fill="#f8f7f0" fill-opacity="1"><g transform="translate(121.011785, 268.466673)"><g><path d="M 2.234375 -10.5625 L 2.234375 -1.09375 L 5.15625 -1.09375 L 5.15625 0 L 1.0625 0 L 1.0625 -10.5625 Z M 2.234375 -10.5625 "/></g></g></g><g fill="#f8f7f0" fill-opacity="1"><g transform="translate(129.758842, 268.466673)"><g><path d="M 0.53125 -5.265625 C 0.53125 -6.234375 0.773438 -7.132812 1.265625 -7.96875 C 1.753906 -8.8125 2.421875 -9.484375 3.265625 -9.984375 C 4.117188 -10.484375 5.039062 -10.734375 6.03125 -10.734375 C 7.007812 -10.734375 7.921875 -10.488281 8.765625 -10 C 9.609375 -9.519531 10.28125 -8.851562 10.78125 -8 C 11.28125 -7.15625 11.53125 -6.242188 11.53125 -5.265625 C 11.53125 -4.296875 11.285156 -3.390625 10.796875 -2.546875 C 10.304688 -1.703125 9.640625 -1.035156 8.796875 -0.546875 C 7.953125 -0.0546875 7.03125 0.1875 6.03125 0.1875 C 5.050781 0.1875 4.132812 -0.0546875 3.28125 -0.546875 C 2.4375 -1.035156 1.765625 -1.703125 1.265625 -2.546875 C 0.773438 -3.390625 0.53125 -4.296875 0.53125 -5.265625 Z M 6.015625 -9.640625 C 5.234375 -9.640625 4.507812 -9.4375 3.84375 -9.03125 C 3.1875 -8.632812 2.664062 -8.101562 2.28125 -7.4375 C 1.894531 -6.769531 1.703125 -6.050781 1.703125 -5.28125 C 1.703125 -4.5 1.898438 -3.769531 2.296875 -3.09375 C 2.691406 -2.425781 3.222656 -1.894531 3.890625 -1.5 C 4.554688 -1.101562 5.269531 -0.90625 6.03125 -0.90625 C 6.8125 -0.90625 7.535156 -1.101562 8.203125 -1.5 C 8.878906 -1.90625 9.40625 -2.441406 9.78125 -3.109375 C 10.164062 -3.785156 10.359375 -4.507812 10.359375 -5.28125 C 10.359375 -6.0625 10.164062 -6.789062 9.78125 -7.46875 C 9.394531 -8.144531 8.867188 -8.675781 8.203125 -9.0625 C 7.535156 -9.445312 6.804688 -9.640625 6.015625 -9.640625 Z M 6.015625 -9.640625 "/></g></g></g><g fill="#f8f7f0" fill-opacity="1"><g transform="translate(145.320098, 268.466673)"><g><path d="M 2.671875 -10.5625 C 5.191406 -10.5625 6.453125 -9.585938 6.453125 -7.640625 C 6.453125 -6.828125 6.21875 -6.15625 5.75 -5.625 C 5.28125 -5.101562 4.632812 -4.804688 3.8125 -4.734375 L 7.171875 0 L 5.71875 0 L 2.53125 -4.640625 L 2.234375 -4.640625 L 2.234375 0 L 1.0625 0 L 1.0625 -10.5625 Z M 2.234375 -5.671875 L 2.765625 -5.671875 C 3.585938 -5.671875 4.210938 -5.820312 4.640625 -6.125 C 5.066406 -6.4375 5.28125 -6.914062 5.28125 -7.5625 C 5.28125 -8.257812 5.070312 -8.75 4.65625 -9.03125 C 4.238281 -9.320312 3.640625 -9.46875 2.859375 -9.46875 L 2.234375 -9.46875 Z M 2.234375 -5.671875 "/></g></g></g><g fill="#f8f7f0" fill-opacity="1"><g transform="translate(156.403855, 268.466673)"><g><path d="M 4.953125 -11.0625 L 9.703125 0 L 8.40625 0 L 7.15625 -3 L 2.640625 -3 L 1.375 0 L 0.078125 0 Z M 3.125 -4.09375 L 6.6875 -4.09375 L 4.921875 -8.3125 Z M 1.90625 -10.5625 Z M 1.90625 -10.5625 "/></g></g></g><g fill="#f8f7f0" fill-opacity="1"><g transform="translate(169.684385, 268.466673)"><g/></g></g><g fill="#f8f7f0" fill-opacity="1"><g transform="translate(177.493964, 268.466673)"><g><path d="M 7.640625 -11.109375 L 11.0625 -2.640625 L 13.828125 -10.5625 L 15.109375 -10.5625 L 11.0625 0.546875 L 7.640625 -7.953125 L 4.234375 0.546875 L 0.1875 -10.5625 L 1.453125 -10.5625 L 4.234375 -2.640625 Z M 1.4375 0 Z M 1.4375 0 "/></g></g></g><g fill="#f8f7f0" fill-opacity="1"><g transform="translate(196.25943, 268.466673)"><g><path d="M 4.953125 -11.0625 L 9.703125 0 L 8.40625 0 L 7.15625 -3 L 2.640625 -3 L 1.375 0 L 0.078125 0 Z M 3.125 -4.09375 L 6.6875 -4.09375 L 4.921875 -8.3125 Z M 1.90625 -10.5625 Z M 1.90625 -10.5625 "/></g></g></g><g fill="#f8f7f0" fill-opacity="1"><g transform="translate(209.53996, 268.466673)"><g><path d="M 7.640625 -11.109375 L 11.0625 -2.640625 L 13.828125 -10.5625 L 15.109375 -10.5625 L 11.0625 0.546875 L 7.640625 -7.953125 L 4.234375 0.546875 L 0.1875 -10.5625 L 1.453125 -10.5625 L 4.234375 -2.640625 Z M 1.4375 0 Z M 1.4375 0 "/></g></g></g><g fill="#f8f7f0" fill-opacity="1"><g transform="translate(228.305431, 268.466673)"><g><path d="M 2.21875 -10.5625 L 2.21875 -4.046875 C 2.21875 -3.171875 2.3125 -2.546875 2.5 -2.171875 C 2.695312 -1.796875 3.015625 -1.488281 3.453125 -1.25 C 3.890625 -1.019531 4.335938 -0.90625 4.796875 -0.90625 C 5.234375 -0.90625 5.644531 -1.003906 6.03125 -1.203125 C 6.425781 -1.398438 6.710938 -1.617188 6.890625 -1.859375 C 7.078125 -2.097656 7.207031 -2.367188 7.28125 -2.671875 C 7.351562 -2.984375 7.390625 -3.453125 7.390625 -4.078125 L 7.390625 -10.5625 L 8.5625 -10.5625 L 8.5625 -3.828125 C 8.5625 -3.128906 8.488281 -2.566406 8.34375 -2.140625 C 8.207031 -1.722656 7.957031 -1.328125 7.59375 -0.953125 C 7.226562 -0.585938 6.800781 -0.304688 6.3125 -0.109375 C 5.832031 0.0859375 5.328125 0.1875 4.796875 0.1875 C 4.140625 0.1875 3.519531 0.03125 2.9375 -0.28125 C 2.351562 -0.59375 1.890625 -1.007812 1.546875 -1.53125 C 1.203125 -2.0625 1.03125 -2.832031 1.03125 -3.84375 L 1.03125 -10.5625 Z M 2.21875 -10.5625 "/></g></g></g><g fill="#f8f7f0" fill-opacity="1"><g transform="translate(241.390079, 268.466673)"><g><path d="M 3.296875 -10.5625 C 4.265625 -10.5625 5.097656 -10.410156 5.796875 -10.109375 C 6.492188 -9.816406 7.078125 -9.421875 7.546875 -8.921875 C 8.015625 -8.421875 8.359375 -7.859375 8.578125 -7.234375 C 8.804688 -6.609375 8.921875 -5.941406 8.921875 -5.234375 C 8.921875 -4.328125 8.710938 -3.484375 8.296875 -2.703125 C 7.878906 -1.929688 7.265625 -1.285156 6.453125 -0.765625 C 5.640625 -0.253906 4.582031 0 3.28125 0 L 1.0625 0 L 1.0625 -10.5625 Z M 3.359375 -1.09375 C 4.003906 -1.09375 4.585938 -1.1875 5.109375 -1.375 C 5.628906 -1.570312 6.085938 -1.859375 6.484375 -2.234375 C 6.890625 -2.617188 7.195312 -3.078125 7.40625 -3.609375 C 7.625 -4.140625 7.734375 -4.695312 7.734375 -5.28125 C 7.734375 -6.039062 7.5625 -6.726562 7.21875 -7.34375 C 6.882812 -7.96875 6.398438 -8.476562 5.765625 -8.875 C 5.140625 -9.269531 4.296875 -9.46875 3.234375 -9.46875 L 2.234375 -9.46875 L 2.234375 -1.09375 Z M 3.359375 -1.09375 "/></g></g></g><g fill="#f8f7f0" fill-opacity="1"><g transform="translate(254.376764, 268.466673)"><g><path d="M 4.953125 -11.0625 L 9.703125 0 L 8.40625 0 L 7.15625 -3 L 2.640625 -3 L 1.375 0 L 0.078125 0 Z M 3.125 -4.09375 L 6.6875 -4.09375 L 4.921875 -8.3125 Z M 1.90625 -10.5625 Z M 1.90625 -10.5625 "/></g></g></g></svg>