<svg xmlns="http://www.w3.org/2000/svg" xmlns:xlink="http://www.w3.org/1999/xlink" width="500" zoomAndPan="magnify" viewBox="0 0 375 374.999991" height="500" preserveAspectRatio="xMidYMid meet" version="1.0"><path fill="#2c0001" d="M 187.5 121.875 C 151.257812 121.875 121.875 152.019531 121.875 189.167969 C 121.875 218.90625 140.683594 244.101562 166.757812 253.007812 C 167.125 253.085938 167.496094 253.125 167.871094 253.125 C 170.300781 253.125 171.238281 251.335938 171.238281 249.785156 C 171.238281 248.171875 171.179688 243.953125 171.152344 238.328125 C 168.976562 238.839844 166.769531 239.105469 164.53125 239.121094 C 151.902344 239.121094 149.03125 229.304688 149.03125 229.304688 C 146.042969 221.542969 141.738281 219.460938 141.738281 219.460938 C 136.023438 215.449219 141.707031 215.332031 142.148438 215.332031 L 142.175781 215.332031 C 148.769531 215.917969 152.226562 222.304688 152.226562 222.304688 C 155.507812 228.046875 159.902344 229.65625 163.828125 229.65625 C 166.453125 229.605469 168.953125 229.019531 171.328125 227.898438 C 171.914062 223.5625 173.613281 220.605469 175.488281 218.90625 C 160.925781 217.207031 145.605469 211.433594 145.605469 185.652344 C 145.605469 178.300781 148.152344 172.292969 152.34375 167.605469 C 151.667969 165.90625 149.414062 159.050781 152.988281 149.792969 C 153.46875 149.679688 153.957031 149.628906 154.453125 149.648438 C 156.824219 149.648438 162.1875 150.554688 171.035156 156.707031 C 176.410156 155.203125 181.890625 154.453125 187.46875 154.453125 C 193.050781 154.453125 198.53125 155.203125 203.90625 156.707031 C 212.753906 150.554688 218.113281 149.648438 220.488281 149.648438 C 220.984375 149.628906 221.472656 149.679688 221.953125 149.792969 C 225.527344 159.050781 223.269531 165.90625 222.597656 167.605469 C 226.785156 172.324219 229.335938 178.328125 229.335938 185.652344 C 229.335938 211.492188 213.984375 217.175781 199.363281 218.847656 C 201.707031 220.925781 203.816406 225.027344 203.816406 231.296875 C 203.816406 240.292969 203.730469 247.558594 203.730469 249.753906 C 203.730469 251.335938 204.640625 253.125 207.070312 253.125 C 207.464844 253.125 207.855469 253.085938 208.242188 253.007812 C 234.34375 244.101562 253.125 218.875 253.125 189.167969 C 253.125 152.019531 223.738281 121.875 187.5 121.875 Z M 187.5 121.875 " fill-opacity="1" fill-rule="nonzero"/></svg>