<svg xmlns="http://www.w3.org/2000/svg" xmlns:xlink="http://www.w3.org/1999/xlink" width="500" zoomAndPan="magnify" viewBox="0 0 375 374.999991" height="500" preserveAspectRatio="xMidYMid meet" version="1.0"><path fill="#2c0001" d="M 187.101562 156.679688 C 168.585938 156.679688 153.242188 171.757812 153.242188 190.542969 C 153.242188 209.324219 168.320312 224.40625 187.101562 224.40625 C 205.886719 224.40625 220.964844 209.0625 220.964844 190.542969 C 220.964844 172.023438 205.621094 156.679688 187.101562 156.679688 Z M 187.101562 212.234375 C 175.199219 212.234375 165.410156 202.445312 165.410156 190.542969 C 165.410156 178.636719 175.199219 168.847656 187.101562 168.847656 C 199.007812 168.847656 208.796875 178.636719 208.796875 190.542969 C 208.796875 202.445312 199.007812 212.234375 187.101562 212.234375 Z M 187.101562 212.234375 " fill-opacity="1" fill-rule="nonzero"/><path fill="#2c0001" d="M 229.960938 155.886719 C 229.960938 156.390625 229.910156 156.890625 229.8125 157.382812 C 229.714844 157.878906 229.570312 158.355469 229.375 158.820312 C 229.183594 159.289062 228.945312 159.730469 228.667969 160.148438 C 228.386719 160.566406 228.070312 160.953125 227.714844 161.3125 C 227.355469 161.667969 226.96875 161.984375 226.550781 162.265625 C 226.132812 162.546875 225.691406 162.78125 225.222656 162.972656 C 224.757812 163.167969 224.277344 163.3125 223.785156 163.410156 C 223.289062 163.507812 222.792969 163.558594 222.289062 163.558594 C 221.785156 163.558594 221.285156 163.507812 220.792969 163.410156 C 220.296875 163.3125 219.816406 163.167969 219.351562 162.972656 C 218.886719 162.78125 218.445312 162.546875 218.027344 162.265625 C 217.605469 161.984375 217.21875 161.667969 216.863281 161.3125 C 216.507812 160.953125 216.1875 160.566406 215.910156 160.148438 C 215.628906 159.730469 215.394531 159.289062 215.199219 158.820312 C 215.007812 158.355469 214.863281 157.878906 214.765625 157.382812 C 214.664062 156.890625 214.617188 156.390625 214.617188 155.886719 C 214.617188 155.382812 214.664062 154.882812 214.765625 154.390625 C 214.863281 153.894531 215.007812 153.414062 215.199219 152.949219 C 215.394531 152.484375 215.628906 152.042969 215.910156 151.625 C 216.1875 151.203125 216.507812 150.816406 216.863281 150.460938 C 217.21875 150.105469 217.605469 149.785156 218.027344 149.507812 C 218.445312 149.226562 218.886719 148.992188 219.351562 148.796875 C 219.816406 148.605469 220.296875 148.460938 220.792969 148.363281 C 221.285156 148.261719 221.785156 148.214844 222.289062 148.214844 C 222.792969 148.214844 223.289062 148.261719 223.785156 148.363281 C 224.277344 148.460938 224.757812 148.605469 225.222656 148.796875 C 225.691406 148.992188 226.132812 149.226562 226.550781 149.507812 C 226.96875 149.785156 227.355469 150.105469 227.714844 150.460938 C 228.070312 150.816406 228.386719 151.203125 228.667969 151.625 C 228.945312 152.042969 229.183594 152.484375 229.375 152.949219 C 229.570312 153.414062 229.714844 153.894531 229.8125 154.390625 C 229.910156 154.882812 229.960938 155.382812 229.960938 155.886719 Z M 229.960938 155.886719 " fill-opacity="1" fill-rule="nonzero"/><path fill="#2c0001" d="M 242.128906 136.046875 C 235.25 128.902344 225.464844 125.199219 214.351562 125.199219 L 159.855469 125.199219 C 136.839844 125.199219 121.496094 140.542969 121.496094 163.558594 L 121.496094 217.789062 C 121.496094 229.167969 125.199219 238.953125 132.605469 246.097656 C 139.75 252.976562 149.273438 256.414062 160.117188 256.414062 L 214.085938 256.414062 C 225.464844 256.414062 234.988281 252.710938 241.863281 246.097656 C 249.007812 239.21875 252.710938 229.429688 252.710938 218.054688 L 252.710938 163.558594 C 252.710938 152.445312 249.007812 142.921875 242.128906 136.046875 Z M 241.070312 218.054688 C 241.070312 226.257812 238.160156 232.871094 233.398438 237.367188 C 228.636719 241.863281 222.023438 244.246094 214.085938 244.246094 L 160.117188 244.246094 C 152.183594 244.246094 145.570312 241.863281 140.808594 237.367188 C 136.046875 232.605469 133.664062 225.992188 133.664062 217.789062 L 133.664062 163.558594 C 133.664062 155.621094 136.046875 149.007812 140.808594 144.246094 C 145.304688 139.75 152.183594 137.367188 160.117188 137.367188 L 214.617188 137.367188 C 222.554688 137.367188 229.167969 139.75 233.929688 144.511719 C 238.425781 149.273438 241.070312 155.886719 241.070312 163.558594 Z M 241.070312 218.054688 " fill-opacity="1" fill-rule="nonzero"/></svg>