<svg xmlns="http://www.w3.org/2000/svg" xmlns:xlink="http://www.w3.org/1999/xlink" width="500" zoomAndPan="magnify" viewBox="0 0 375 374.999991" height="500" preserveAspectRatio="xMidYMid meet" version="1.0"><path fill="#2c0001" d="M 242.628906 121.875 L 133.089844 121.875 C 127.105469 121.875 121.875 126.179688 121.875 132.097656 L 121.875 241.878906 C 121.875 247.824219 127.105469 253.125 133.089844 253.125 L 242.59375 253.125 C 248.613281 253.125 253.125 247.789062 253.125 241.878906 L 253.125 132.097656 C 253.160156 126.179688 248.613281 121.875 242.628906 121.875 Z M 162.558594 231.277344 L 143.757812 231.277344 L 143.757812 172.816406 L 162.558594 172.816406 Z M 153.808594 163.925781 L 153.671875 163.925781 C 147.65625 163.925781 143.757812 159.449219 143.757812 153.839844 C 143.757812 148.128906 147.757812 143.757812 153.910156 143.757812 C 160.0625 143.757812 163.828125 148.097656 163.960938 153.839844 C 163.960938 159.449219 160.0625 163.925781 153.808594 163.925781 Z M 231.277344 231.277344 L 212.476562 231.277344 L 212.476562 199.3125 C 212.476562 191.652344 209.738281 186.421875 202.9375 186.421875 C 197.738281 186.421875 194.664062 189.9375 193.292969 193.363281 C 192.78125 194.59375 192.644531 196.269531 192.644531 197.980469 L 192.644531 231.277344 L 173.839844 231.277344 L 173.839844 172.816406 L 192.644531 172.816406 L 192.644531 180.953125 C 195.378906 177.054688 199.65625 171.449219 209.601562 171.449219 C 221.945312 171.449219 231.28125 179.582031 231.28125 197.125 Z M 231.277344 231.277344 " fill-opacity="1" fill-rule="nonzero"/></svg>