<svg xmlns="http://www.w3.org/2000/svg" xmlns:xlink="http://www.w3.org/1999/xlink" width="500" zoomAndPan="magnify" viewBox="0 0 375 374.999991" height="500" preserveAspectRatio="xMidYMid meet" version="1.0"><defs><clipPath id="1e3172a6cc"><path d="M 112.5 131 L 262.5 131 L 262.5 244 L 112.5 244 Z M 112.5 131 " clip-rule="nonzero"/></clipPath></defs><g clip-path="url(#1e3172a6cc)"><path fill="#2c0001" d="M 261.515625 156.089844 C 261.515625 142.90625 251.816406 132.300781 239.835938 132.300781 C 223.605469 131.542969 207.050781 131.25 190.136719 131.25 L 184.863281 131.25 C 167.988281 131.25 151.40625 131.542969 135.175781 132.304688 C 123.222656 132.304688 113.523438 142.96875 113.523438 156.152344 C 112.792969 166.578125 112.480469 177.007812 112.5 187.4375 C 112.46875 197.867188 112.800781 208.308594 113.496094 218.757812 C 113.496094 231.941406 123.191406 242.632812 135.144531 242.632812 C 152.195312 243.425781 169.6875 243.777344 187.46875 243.746094 C 205.28125 243.804688 222.722656 243.433594 239.792969 242.632812 C 251.777344 242.632812 261.472656 231.941406 261.472656 218.757812 C 262.175781 208.296875 262.5 197.867188 262.46875 187.410156 C 262.535156 176.980469 262.21875 166.539062 261.515625 156.089844 Z M 173.144531 216.179688 L 173.144531 158.609375 L 215.625 187.378906 Z M 173.144531 216.179688 " fill-opacity="1" fill-rule="nonzero"/></g></svg>